<?xml version="1.0" standalone="no"?>
<!DOCTYPE svg PUBLIC "-//W3C//DTD SVG 20010904//EN"
 "http://www.w3.org/TR/2001/REC-SVG-20010904/DTD/svg10.dtd">
<svg version="1.0" xmlns="http://www.w3.org/2000/svg"
 width="700.000000pt" height="700.000000pt" viewBox="0 0 700.000000 700.000000"
 preserveAspectRatio="xMidYMid meet">
<metadata>
Created by potrace 1.14, written by Peter Selinger 2001-2017
</metadata>
<g transform="translate(0.000000,700.000000) scale(0.100000,-0.100000)"
fill="#000000" stroke="none">
<path d="M760 6984 c-142 -38 -256 -149 -300 -292 -19 -60 -20 -94 -20 -567 0
-466 1 -508 19 -564 47 -151 163 -260 311 -295 54 -13 159 -16 633 -16 l567 0
0 -220 0 -220 -434 0 c-333 0 -451 -3 -508 -14 -202 -39 -378 -143 -511 -301
-66 -79 -149 -238 -172 -331 -9 -33 -88 -537 -177 -1120 l-162 -1059 -4 -583
c-3 -494 -1 -596 13 -673 58 -338 302 -605 641 -701 l79 -23 2725 -3 c2407 -2
2735 0 2813 13 336 58 604 303 699 641 23 78 23 86 23 704 l0 625 -163 1060
c-90 583 -170 1087 -178 1120 -24 94 -105 252 -171 330 -121 144 -260 232
-462 293 -51 15 -188 17 -1616 22 l-1560 5 -3 218 -2 217 573 0 c623 0 636 1
739 57 67 37 143 121 181 200 l32 68 0 550 0 550 -32 68 c-58 122 -161 208
-288 242 -87 22 -3200 22 -3285 -1z m897 -2966 c67 -25 137 -92 171 -166 21
-45 26 -72 27 -132 0 -66 -5 -85 -33 -142 -58 -118 -161 -182 -292 -182 -60 0
-86 5 -132 26 -118 55 -189 166 -189 296 0 89 24 152 82 216 98 107 224 136
366 84z m3928 4 c71 -22 165 -117 190 -190 39 -119 11 -254 -71 -337 -124
-128 -322 -134 -457 -16 -20 18 -51 62 -69 99 -62 126 -38 272 62 372 89 89
211 115 345 72z m-1939 -1105 c189 -97 238 -350 97 -507 -25 -28 -69 -63 -97
-78 -45 -24 -62 -27 -146 -27 -84 0 -101 3 -146 27 -75 40 -139 116 -164 195
-25 82 -25 114 0 196 31 100 115 184 220 218 14 5 61 7 105 5 63 -2 91 -8 131
-29z m2342 -1623 c47 -19 88 -58 114 -108 16 -31 19 -53 16 -106 -4 -77 -32
-128 -95 -170 l-37 -25 -2486 0 -2486 0 -37 25 c-63 42 -91 93 -95 170 -5 75
14 124 65 172 65 62 -135 57 2551 58 2195 0 2457 -2 2490 -16z"/>
</g>
</svg>
